<svg width="263" height="224" viewBox="0 0 263 224" fill="none" xmlns="http://www.w3.org/2000/svg">
<path d="M225.775 3.01874C225.775 3.01874 143.299 -16.3798 118.383 65.0891C100.505 123.547 98.9811 155.424 61.8932 171.494C24.8095 187.563 3.21445 191.005 1 208.404" stroke="white" stroke-miterlimit="10"/>
<path d="M98.4275 208.404C98.4275 208.404 76.6576 154.312 134.108 126.051C172.89 106.974 154.709 42.2034 179.842 21.5841C199.776 5.23531 225.775 40.5369 225.775 40.5369" stroke="white" stroke-miterlimit="10"/>
<path d="M115.464 223.019C115.464 223.019 116.126 181.176 160.419 153.745C204.713 126.314 187.376 78.9298 212.85 71.7262C238.321 64.5225 263.791 95.5577 263.791 95.5577" stroke="white" stroke-miterlimit="10"/>
<path d="M146.621 208.07C146.621 208.07 143.299 173.71 177.074 169.277C210.848 164.844 239.64 202.404 239.64 202.404" stroke="white" stroke-miterlimit="10"/>
</svg>
