<svg width="143" height="221" viewBox="0 0 143 221" fill="none" xmlns="http://www.w3.org/2000/svg">
<path d="M68.2814 1.95929C126.948 -5.49849 152.164 37.7066 137.629 67.217C123.093 96.7273 58.5329 102.964 67.5572 150.761C76.5856 198.561 -1.90247 220.172 -1.90247 220.172" stroke="white" stroke-miterlimit="10"/>
<path d="M-21 14.4333C-21 14.4333 23.7219 30.6446 68.219 24.8242C112.716 19.0038 117.919 45.1644 112.716 55.5803C101.919 77.1954 44.1972 81.3492 40.4593 116.263C37.6496 142.507 59.9773 177.78 9.31549 196.482" stroke="white" stroke-miterlimit="10"/>
<path d="M-1.06567 31.8904C-1.06567 31.8904 44.6469 26.0533 36.4842 51.8431C27.1311 81.4034 5.16143 80.9368 25.924 118.346C33.3083 131.654 35.4769 185.267 -5.21985 174.459" stroke="white" stroke-miterlimit="10"/>
<path d="M76.3774 61.8174C87.7293 61.8174 96.9318 56.7921 96.9318 50.5932C96.9318 44.3943 87.7293 39.369 76.3774 39.369C65.0255 39.369 55.823 44.3943 55.823 50.5932C55.823 56.7921 65.0255 61.8174 76.3774 61.8174Z" stroke="white" stroke-miterlimit="10"/>
</svg>
