<svg width="103" height="30" viewBox="0 0 103 30" fill="none" xmlns="http://www.w3.org/2000/svg">
<path d="M48.2049 8.75561V10.896H44.0223V22.3636H41.5285V10.896H37.3459V8.75561H48.2049Z" fill="#F2F2F2"/>
<path d="M48.3308 17.2778C48.3308 16.3745 48.4617 15.5825 48.7235 14.9018C48.9984 14.2211 49.3584 13.6582 49.8035 13.2131C50.2486 12.7549 50.7592 12.4145 51.3352 12.192C51.9112 11.9563 52.5003 11.8385 53.1024 11.8385C54.5163 11.8385 55.6159 12.2771 56.4014 13.1542C57.1999 14.0312 57.5992 15.3403 57.5992 17.0814C57.5992 17.2123 57.5926 17.3629 57.5795 17.5331C57.5795 17.6902 57.573 17.8342 57.5599 17.9651H50.7854C50.8508 18.7898 51.1388 19.4312 51.6494 19.8894C52.173 20.3345 52.9257 20.5571 53.9075 20.5571C54.4835 20.5571 55.0072 20.5047 55.4784 20.4C55.9628 20.2952 56.3424 20.184 56.6174 20.0662L56.9315 22.0102C56.8006 22.0756 56.6174 22.1476 56.3817 22.2262C56.1592 22.2916 55.8974 22.3505 55.5963 22.4029C55.3083 22.4683 54.9941 22.5207 54.6537 22.56C54.3134 22.5992 53.9664 22.6189 53.613 22.6189C52.7097 22.6189 51.9243 22.488 51.2566 22.2262C50.589 21.9512 50.0392 21.5782 49.6072 21.1069C49.1752 20.6225 48.8544 20.0596 48.645 19.4182C48.4355 18.7636 48.3308 18.0502 48.3308 17.2778ZM55.2232 16.2174C55.2232 15.8902 55.1774 15.5825 55.0857 15.2945C54.9941 14.9934 54.8566 14.7382 54.6734 14.5287C54.5032 14.3062 54.2872 14.136 54.0254 14.0182C53.7766 13.8872 53.4755 13.8218 53.1221 13.8218C52.7555 13.8218 52.4348 13.8938 52.1599 14.0378C51.885 14.1687 51.6494 14.3454 51.453 14.568C51.2697 14.7905 51.1257 15.0458 51.021 15.3338C50.9163 15.6218 50.8443 15.9163 50.805 16.2174H55.2232Z" fill="#F2F2F2"/>
<path d="M62.6907 20.6552C63.319 20.6552 63.7772 20.5832 64.0652 20.4392C64.3532 20.2822 64.4972 20.0203 64.4972 19.6538C64.4972 19.3134 64.3401 19.032 64.0259 18.8094C63.7248 18.5869 63.2208 18.3447 62.5139 18.0829C62.0819 17.9258 61.6827 17.7622 61.3161 17.592C60.9627 17.4087 60.655 17.1992 60.3932 16.9636C60.1314 16.728 59.9219 16.4465 59.7648 16.1192C59.6208 15.7789 59.5488 15.3665 59.5488 14.8822C59.5488 13.9396 59.8958 13.2 60.5896 12.6632C61.2834 12.1134 62.2259 11.8385 63.4172 11.8385C64.0194 11.8385 64.5954 11.8974 65.1452 12.0152C65.695 12.12 66.1074 12.2247 66.3823 12.3294L65.9503 14.2538C65.6885 14.136 65.3547 14.0312 64.9488 13.9396C64.543 13.8349 64.0718 13.7825 63.535 13.7825C63.0507 13.7825 62.6579 13.8676 62.3568 14.0378C62.0558 14.1949 61.9052 14.4436 61.9052 14.784C61.9052 14.9542 61.9314 15.1047 61.9838 15.2356C62.0492 15.3665 62.1539 15.4909 62.2979 15.6087C62.4419 15.7134 62.6318 15.8247 62.8674 15.9425C63.103 16.0472 63.391 16.1585 63.7314 16.2763C64.2943 16.4858 64.7721 16.6952 65.1648 16.9047C65.5576 17.1011 65.8783 17.3302 66.127 17.592C66.3888 17.8407 66.5787 18.1287 66.6965 18.456C66.8143 18.7832 66.8732 19.176 66.8732 19.6342C66.8732 20.616 66.5067 21.3622 65.7736 21.8727C65.0536 22.3702 64.0194 22.6189 62.671 22.6189C61.7678 22.6189 61.0412 22.5403 60.4914 22.3832C59.9416 22.2392 59.5554 22.1214 59.3328 22.0298L59.7452 20.0465C60.0987 20.1905 60.5176 20.328 61.0019 20.4589C61.4994 20.5898 62.0623 20.6552 62.6907 20.6552Z" fill="#F2F2F2"/>
<path d="M68.9749 9.38397L71.3509 8.99124V12.0938H75.0033V14.0771H71.3509V18.2596C71.3509 19.0843 71.4818 19.6734 71.7436 20.0269C72.0055 20.3803 72.4506 20.5571 73.0789 20.5571C73.5109 20.5571 73.8906 20.5112 74.2178 20.4196C74.5582 20.328 74.8266 20.2429 75.0229 20.1643L75.4156 22.0494C75.1407 22.1672 74.7807 22.2851 74.3356 22.4029C73.8906 22.5338 73.3669 22.5992 72.7647 22.5992C72.0316 22.5992 71.4164 22.5011 70.9189 22.3047C70.4346 22.1083 70.0484 21.8269 69.7604 21.4603C69.4724 21.0807 69.2695 20.6291 69.1516 20.1054C69.0338 19.5687 68.9749 18.96 68.9749 18.2792V9.38397Z" fill="#F2F2F2"/>
<path d="M79.6958 22.3636H77.3198V12.0938H79.6958V22.3636ZM79.951 9.08943C79.951 9.53452 79.807 9.88797 79.519 10.1498C79.231 10.4116 78.8907 10.5425 78.4979 10.5425C78.0921 10.5425 77.7452 10.4116 77.4572 10.1498C77.1692 9.88797 77.0252 9.53452 77.0252 9.08943C77.0252 8.63124 77.1692 8.27125 77.4572 8.00943C77.7452 7.74761 78.0921 7.6167 78.4979 7.6167C78.8907 7.6167 79.231 7.74761 79.519 8.00943C79.807 8.27125 79.951 8.63124 79.951 9.08943Z" fill="#F2F2F2"/>
<path d="M82.727 12.4276C83.1851 12.2967 83.7808 12.1723 84.5139 12.0545C85.247 11.9367 86.0586 11.8778 86.9488 11.8778C87.7866 11.8778 88.487 11.9956 89.0499 12.2312C89.6128 12.4538 90.0579 12.7745 90.3851 13.1934C90.7255 13.5992 90.9611 14.0967 91.0921 14.6858C91.2361 15.2618 91.3081 15.8967 91.3081 16.5905V22.3636H88.9321V16.9636C88.9321 16.4138 88.8928 15.9491 88.8142 15.5694C88.7488 15.1767 88.631 14.8625 88.4608 14.6269C88.3037 14.3782 88.0812 14.2014 87.7931 14.0967C87.5182 13.9789 87.1779 13.92 86.7721 13.92C86.471 13.92 86.1568 13.9396 85.8295 13.9789C85.5022 14.0182 85.2601 14.0509 85.103 14.0771V22.3636H82.727V12.4276Z" fill="#F2F2F2"/>
<path d="M96.0789 16.9636C96.0789 17.9716 96.2949 18.7112 96.7269 19.1825C97.172 19.6407 97.7415 19.8698 98.4353 19.8698C98.8149 19.8698 99.1684 19.8174 99.4957 19.7127C99.836 19.608 100.111 19.4836 100.32 19.3396V14.0182C100.15 13.9789 99.9407 13.9462 99.692 13.92C99.4433 13.8807 99.1291 13.8611 98.7495 13.8611C97.8855 13.8611 97.2244 14.1491 96.7662 14.7251C96.308 15.288 96.0789 16.0342 96.0789 16.9636ZM102.696 21.3229C102.696 22.9592 102.277 24.1571 101.44 24.9163C100.615 25.6756 99.3451 26.0552 97.6302 26.0552C97.0018 26.0552 96.3866 26.0029 95.7844 25.8982C95.1953 25.7934 94.6586 25.656 94.1742 25.4858L94.6062 23.4632C95.012 23.6334 95.4702 23.7709 95.9807 23.8756C96.5044 23.9803 97.0673 24.0327 97.6695 24.0327C98.6251 24.0327 99.3058 23.8363 99.7117 23.4436C100.117 23.0509 100.32 22.4683 100.32 21.696V21.3032C100.085 21.4211 99.7706 21.5389 99.3778 21.6567C98.9982 21.7745 98.5597 21.8334 98.0622 21.8334C97.4077 21.8334 96.8055 21.7287 96.2557 21.5192C95.7189 21.3098 95.2542 21.0022 94.8615 20.5963C94.4818 20.1905 94.1807 19.6865 93.9582 19.0843C93.7487 18.4691 93.644 17.7622 93.644 16.9636C93.644 16.2174 93.7553 15.5302 93.9778 14.9018C94.2135 14.2734 94.5473 13.7367 94.9793 13.2916C95.4244 12.8465 95.9611 12.4996 96.5895 12.2509C97.2178 12.0022 97.9313 11.8778 98.7298 11.8778C99.5022 11.8778 100.235 11.9367 100.929 12.0545C101.623 12.1723 102.212 12.2967 102.696 12.4276V21.3229Z" fill="#F2F2F2"/>
<path fill-rule="evenodd" clip-rule="evenodd" d="M23.6486 2.74283C17.1605 3.06766 11.9997 8.43115 11.9997 15C11.9997 21.5688 17.1605 26.9323 23.6487 27.2571C21.2045 28.9849 18.2208 30 15 30C6.71573 30 0 23.2843 0 15C0 6.71573 6.71573 0 15 0C18.2208 0 21.2045 1.0151 23.6486 2.74283Z" fill="#FF0B53"/>
<path d="M34.9088 14.9999C34.9088 20.8742 30.1468 25.6363 24.2725 25.6363C18.3982 25.6363 13.6361 20.8742 13.6361 14.9999C13.6361 9.12559 18.3982 4.36353 24.2725 4.36353C30.1468 4.36353 34.9088 9.12559 34.9088 14.9999Z" fill="white"/>
</svg>
